<svg width="512" height="512" viewBox="0 0 512 512" fill="none" xmlns="http://www.w3.org/2000/svg">
<rect width="512" height="512" fill="white"/>
<path d="M25 186.169H57.7192L97.7457 285.581H99.2181L124.575 197.076H151.569L115.25 311.593H81.5497L25 186.169Z" fill="#0046DE"/>
<path d="M124.428 315.483C124.428 307.085 125.791 299.287 128.518 292.089C131.353 284.89 135.28 278.674 140.297 273.439C145.423 268.204 151.476 264.114 158.456 261.169C165.436 258.115 173.07 256.588 181.359 256.588H182.995C191.284 256.588 198.919 258.115 205.899 261.169C212.879 264.114 218.877 268.204 223.894 273.439C229.02 278.674 233.001 284.89 235.837 292.089C238.672 299.178 240.09 306.921 240.09 315.319V316.955C240.09 325.353 238.672 333.151 235.837 340.35C233.001 347.439 229.02 353.601 223.894 358.836C218.877 364.071 212.879 368.161 205.899 371.106C198.919 374.05 191.284 375.523 182.995 375.523H181.359C173.07 375.523 165.436 374.05 158.456 371.106C151.585 368.052 145.586 363.907 140.46 358.672C135.443 353.328 131.517 347.112 128.681 340.022C125.846 332.824 124.428 325.081 124.428 316.792V315.483ZM150.93 316.792C150.93 322.245 151.694 327.207 153.221 331.679C154.857 336.151 157.038 340.022 159.765 343.294C162.491 346.457 165.709 348.911 169.417 350.656C173.234 352.401 177.324 353.274 181.686 353.274H182.995C187.358 353.274 191.393 352.401 195.101 350.656C198.919 348.911 202.19 346.457 204.917 343.294C207.644 340.022 209.77 336.151 211.297 331.679C212.824 327.207 213.588 322.245 213.588 316.792V315.483C213.588 310.03 212.824 305.067 211.297 300.596C209.77 296.124 207.589 292.307 204.753 289.144C202.027 285.872 198.809 283.364 195.101 281.619C191.393 279.874 187.303 279.001 182.832 279.001H181.523C177.16 279.001 173.125 279.874 169.417 281.619C165.709 283.364 162.491 285.872 159.765 289.144C157.038 292.307 154.857 296.124 153.221 300.596C151.694 305.067 150.93 310.03 150.93 315.483V316.792Z" fill="#0046DE"/>
<path d="M271.173 281.619H240.09V259.37H327.614V281.619H296.858V373.887H271.173V281.619Z" fill="#0046DE"/>
<path d="M330.762 258.879H461.415L469.594 281.128H356.283V305.34H279L285.362 326.444H356.283V351.147H469.594L477.774 373.396H330.762V258.879Z" fill="#0046DE"/>
<path d="M138.36 136H163.314V182.708H164.753L201.864 136H230.337L186.348 187.507L209.782 217.74L233.216 247.972H203.304L164.593 195.505H163.314V247.972H138.36V136Z" fill="black"/>
<path d="M237.751 145H273.103L296.617 209.944H298.056L321.571 145H356.922V256.972H332.608V175.073H331.168L306.534 242.096H288.139L263.345 175.073H262.065V256.972H237.751V145Z" fill="black"/>
<path d="M400.37 154.528H432.362L470.913 266.5H444.359L437.001 243.146H395.732L388.213 266.5H361.5L400.37 154.528ZM431.083 223.151L417.006 180.441H415.407L408.448 201.796L401.49 223.151H431.083Z" fill="black"/>
</svg>
